# xmcd
#
# Track frame offsets: 
#        150
#        12539
#        27087
#        41204
#        55889
#        69533
#        83152
#        96390
#        109967
#        123973
#        136544
#        151673
#        167373
#        180173
#        192613
#        207765
#        222206
#        236478
#        250731
#        266069
#        279326
#        293138
#        303674
#
# Disc length: 4205 seconds
#
# Revision: 0
# Processed by: cddbd v1.5.2PL0 Copyright (c) Steve Scherf et al.
# Submitted via: ExactAudioCopy v0.99pb3
#
DISCID=41106b17
DTITLE=Victoria Spivey - Complete Recorded Works, Vol. 3 (1929-1936)
DYEAR=2000
DGENRE=Blues
TTITLE0=Blood Hound Blues
TTITLE1=Dirty T.B. Blues
TTITLE2=Moaning The Blues
TTITLE3=Telephoning The Blues
TTITLE4=New York Blues
TTITLE5=Lonesome With The Blues
TTITLE6=Showered With The Blues
TTITLE7=Haunted By The Blues
TTITLE8=You've Gotta Have What It Takes - Part 1
TTITLE9=You've Gotta Have What It Takes - Part 2
TTITLE10=Baulin' Water Blues - Part 1
TTITLE11=Baulin' Water Blues - Part 2
TTITLE12=Mama's Quittin' And Leavin' - Part 1
TTITLE13=Mama's Quittin' And Leavin' - Part 2
TTITLE14=Nebraska Blues
TTITLE15=He Wants Too Much
TTITLE16=Low Down Man Blues
TTITLE17=Don't Trust Nobody Blues
TTITLE18=Dreaming 'Bout My Man
TTITLE19=Sweet Please
TTITLE20=Black Snake Swing
TTITLE21=I'll Never Fall In Love Again
TTITLE22=T B's Got Me
EXTD=
EXTT0=
EXTT1=
EXTT2=
EXTT3=
EXTT4=
EXTT5=
EXTT6=
EXTT7=
EXTT8=
EXTT9=
EXTT10=
EXTT11=
EXTT12=
EXTT13=
EXTT14=
EXTT15=
EXTT16=
EXTT17=
EXTT18=
EXTT19=
EXTT20=
EXTT21=
EXTT22=
PLAYORDER=
